<svg width="48" height="48" viewBox="0 0 48 48" fill="none" xmlns="http://www.w3.org/2000/svg">
<circle cx="24" cy="24" r="24" fill="#FDF3F3"/>
<path d="M24 10L36.1244 31H11.8756L24 10Z" fill="#F6CCCC"/>
<path d="M24 17C23.4886 16.3182 22.8115 15.7784 22.0328 15.4319C21.2541 15.0854 20.3998 14.9437 19.551 15.0202C18.7021 15.0967 17.8869 15.389 17.1828 15.8692C16.4787 16.3494 15.909 17.0016 15.5279 17.7639C15.1467 18.5262 14.9667 19.3733 15.0051 20.2247C15.0434 21.0762 15.2987 21.9037 15.7467 22.6287C16.1948 23.3537 16.8208 23.9521 17.5652 24.3671C18.3096 24.7821 19.1477 25 20 25M24 17C24.5114 16.3182 25.1885 15.7784 25.9672 15.4319C26.7459 15.0854 27.6002 14.9437 28.449 15.0202C29.2979 15.0967 30.1131 15.389 30.8172 15.8692C31.5213 16.3494 32.091 17.0016 32.4721 17.7639C32.8533 18.5262 33.0333 19.3733 32.9949 20.2247C32.9566 21.0762 32.7013 21.9037 32.2533 22.6287C31.8052 23.3537 31.1792 23.9521 30.4348 24.3671C29.6904 24.7821 28.8523 25 28 25M24 17V33" stroke="#10141B" stroke-width="2" stroke-linecap="round" stroke-linejoin="round"/>
</svg>
