<svg width="48" height="48" viewBox="0 0 48 48" fill="none" xmlns="http://www.w3.org/2000/svg">
<circle opacity="0.3" cx="24" cy="24" r="24" fill="#D9EED3"/>
<path d="M24 10L36.1244 31H11.8756L24 10Z" fill="#D1EFC8"/>
<path d="M15 24C15 24.7956 15.3161 25.5587 15.8787 26.1213C16.4413 26.6839 17.2044 27 18 27C18.7956 27 19.5587 26.6839 20.1213 26.1213C20.6839 25.5587 21 24.7956 21 24C21 23.2044 20.6839 22.4413 20.1213 21.8787C19.5587 21.3161 18.7956 21 18 21C17.2044 21 16.4413 21.3161 15.8787 21.8787C15.3161 22.4413 15 23.2044 15 24ZM27 24C27 24.7956 27.3161 25.5587 27.8787 26.1213C28.4413 26.6839 29.2044 27 30 27C30.7956 27 31.5587 26.6839 32.1213 26.1213C32.6839 25.5587 33 24.7956 33 24C33 23.2044 32.6839 22.4413 32.1213 21.8787C31.5587 21.3161 30.7956 21 30 21C29.2044 21 28.4413 21.3161 27.8787 21.8787C27.3161 22.4413 27 23.2044 27 24Z" stroke="#10141B" stroke-width="2" stroke-linecap="round" stroke-linejoin="round"/>
<path d="M15.0001 24C14.8524 22.8758 15.1575 21.7459 15.8854 20.7215C16.6133 19.6972 17.7389 18.8136 19.1515 18.1578C20.5641 17.5019 22.215 17.0964 23.9418 16.9811C25.6686 16.8657 27.4119 17.0446 29.0001 17.5M33.0001 24C33.1478 25.1243 32.8427 26.2542 32.1148 27.2785C31.3869 28.3029 30.2613 29.1864 28.8488 29.8423C27.4362 30.4981 25.7853 30.9036 24.0585 31.019C22.3316 31.1343 20.5884 30.9554 19.0001 30.5" stroke="#10141B" stroke-width="2" stroke-linecap="round" stroke-linejoin="round"/>
</svg>
