<svg width="48" height="48" viewBox="0 0 48 48" fill="none" xmlns="http://www.w3.org/2000/svg">
<circle opacity="0.3" cx="24" cy="24" r="24" fill="#F5DEC6"/>
<path d="M24 10L36.1244 31H11.8756L24 10Z" fill="#F2D8BD"/>
<path d="M18.5 28.5C20.1569 28.5 21.5 27.1569 21.5 25.5C21.5 23.8431 20.1569 22.5 18.5 22.5C16.8431 22.5 15.5 23.8431 15.5 25.5C15.5 27.1569 16.8431 28.5 18.5 28.5Z" stroke="#10141B" stroke-width="2"/>
<path d="M18.5 22.5C18.5 19.75 19.5 14.5 24 14.5C26.25 14.5 30.36 15.666 28.768 22.2805C28.628 22.8635 28.077 23.9875 28.077 23.9875L27.275 25.7885C26.4455 27.459 25.374 31.727 28.768 33.3055C29.797 33.784 32.0085 33.475 32.5 31.3005" stroke="#10141B" stroke-width="2" stroke-linecap="round" stroke-linejoin="round"/>
</svg>
