<svg width="48" height="48" viewBox="0 0 48 48" fill="none" xmlns="http://www.w3.org/2000/svg">
<circle opacity="0.3" cx="24" cy="24" r="24" fill="#DEE1F6"/>
<path d="M24 10L36.1244 31H11.8756L24 10Z" fill="#D4D8F4"/>
<g clip-path="url(#clip0_984_13154)">
<path d="M15.5 16C16.0304 16 16.5391 16.2107 16.9142 16.5858C17.2893 16.9609 17.5 17.4696 17.5 18V27" stroke="#10141B" stroke-width="2" stroke-linecap="round" stroke-linejoin="round"/>
<path d="M17.5 18C17.5 17.4696 17.7107 16.9609 18.0858 16.5858C18.4609 16.2107 18.9696 16 19.5 16C20.0304 16 20.5391 16.2107 20.9142 16.5858C21.2893 16.9609 21.5 17.4696 21.5 18V27" stroke="#10141B" stroke-width="2" stroke-linecap="round" stroke-linejoin="round"/>
<path d="M21.5 18C21.5 17.4696 21.7107 16.9609 22.0858 16.5858C22.4609 16.2107 22.9696 16 23.5 16C24.0304 16 24.5391 16.2107 24.9142 16.5858C25.2893 16.9609 25.5 17.4696 25.5 18V28C25.5 28.7956 25.8161 29.5587 26.3787 30.1213C26.9413 30.6839 27.7044 31 28.5 31H33.5M33.5 31L30.5 28M33.5 31L30.5 34" stroke="#10141B" stroke-width="2" stroke-linecap="round" stroke-linejoin="round"/>
</g>
<defs>
<clipPath id="clip0_984_13154">
<rect width="24" height="24" fill="white" transform="translate(12.5 12)"/>
</clipPath>
</defs>
</svg>
