<svg width="48" height="48" viewBox="0 0 48 48" fill="none" xmlns="http://www.w3.org/2000/svg">
<circle opacity="0.3" cx="24" cy="24" r="24" fill="#D5F3F6"/>
<path d="M24 10L36.1244 31H11.8756L24 10Z" fill="#CFF3F7"/>
<path d="M18 15C18 16.5913 18.6321 18.1174 19.7574 19.2426C20.8826 20.3679 22.4087 21 24 21C25.5913 21 27.1174 20.3679 28.2426 19.2426C29.3679 18.1174 30 16.5913 30 15" stroke="#10141B" stroke-width="2" stroke-linecap="round" stroke-linejoin="round"/>
<path d="M18 27C18 28.5913 18.6321 30.1174 19.7574 31.2426C20.8826 32.3679 22.4087 33 24 33C25.5913 33 27.1174 32.3679 28.2426 31.2426C29.3679 30.1174 30 28.5913 30 27C30 25.4087 29.3679 23.8826 28.2426 22.7574C27.1174 21.6321 25.5913 21 24 21C22.4087 21 20.8826 21.6321 19.7574 22.7574C18.6321 23.8826 18 25.4087 18 27Z" stroke="#10141B" stroke-width="2" stroke-linecap="round" stroke-linejoin="round"/>
</svg>
