<svg width="48" height="48" viewBox="0 0 48 48" fill="none" xmlns="http://www.w3.org/2000/svg">
<circle opacity="0.3" cx="24" cy="24" r="24" fill="#DDCEE0"/>
<path d="M24 10L36.1244 31H11.8756L24 10Z" fill="#DAC4DE"/>
<g clip-path="url(#clip0_984_13136)">
<path d="M15.5 16C16.0304 16 16.5391 16.2107 16.9142 16.5858C17.2893 16.9609 17.5 17.4696 17.5 18V27" stroke="#10141B" stroke-width="2" stroke-linecap="round" stroke-linejoin="round"/>
<path d="M17.5 18C17.5 17.4696 17.7107 16.9609 18.0858 16.5858C18.4609 16.2107 18.9696 16 19.5 16C20.0304 16 20.5391 16.2107 20.9142 16.5858C21.2893 16.9609 21.5 17.4696 21.5 18V27" stroke="#10141B" stroke-width="2" stroke-linecap="round" stroke-linejoin="round"/>
<path d="M21.5 18C21.5 17.4696 21.7107 16.9609 22.0858 16.5858C22.4609 16.2107 22.9696 16 23.5 16C24.0304 16 24.5391 16.2107 24.9142 16.5858C25.2893 16.9609 25.5 17.4696 25.5 18V28C25.5 29.3261 26.2375 30.5979 27.5503 31.5355C28.863 32.4732 30.6435 33 32.5 33" stroke="#10141B" stroke-width="2" stroke-linecap="round" stroke-linejoin="round"/>
<path d="M24.5 33C26.3565 33 28.137 32.4732 29.4497 31.5355C30.7625 30.5979 31.5 29.3261 31.5 28V26C31.5 25.2044 31.1839 24.4413 30.6213 23.8787C30.0587 23.3161 29.2956 23 28.5 23C27.7044 23 26.9413 23.3161 26.3787 23.8787C25.8161 24.4413 25.5 25.2044 25.5 26" stroke="#10141B" stroke-width="2" stroke-linecap="round" stroke-linejoin="round"/>
</g>
<defs>
<clipPath id="clip0_984_13136">
<rect width="24" height="24" fill="white" transform="translate(12.5 12)"/>
</clipPath>
</defs>
</svg>
