<svg width="165" height="32" viewBox="0 0 165 32" fill="none" xmlns="http://www.w3.org/2000/svg">
<mask id="mask0_846_2833" style="mask-type:luminance" maskUnits="userSpaceOnUse" x="0" y="0" width="37" height="32">
<path d="M34.7904 14.7697C33.9956 14.7697 33.353 15.4251 33.353 16.2357V20.0302C33.353 21.3008 32.3384 22.3356 31.0926 22.3356H24.5878C23.342 22.3356 22.3274 21.3008 22.3274 20.0302V16.2357C22.3274 15.4251 21.6848 14.7697 20.89 14.7697C20.0952 14.7697 19.4526 15.4251 19.4526 16.2357V20.0302C19.4526 22.922 21.7581 25.2792 24.5934 25.2792H31.0983C31.91 25.2792 32.6766 25.0837 33.3586 24.7445V28.2515H17.8236C17.0288 28.2515 16.3862 28.9069 16.3862 29.7176C16.3862 30.5282 17.0288 31.1894 17.8236 31.1894H34.796C35.5908 31.1894 36.2334 30.534 36.2334 29.7176V16.2357C36.2334 15.4251 35.5908 14.7697 34.796 14.7697H34.7904ZM5.6819 0.494431C5.6199 0.488682 5.55225 0.482932 5.48461 0.482932H1.64595C0.744059 0.482932 0 1.23608 0 2.1617V30.5282C0 31.3388 0.642596 32 1.43739 32C2.23218 32 2.87477 31.3446 2.87477 30.5282V5.73194C2.87477 4.46137 3.8894 3.42077 5.13513 3.42077H5.41697C6.09903 3.42077 6.7078 3.73123 7.11929 4.21416C7.46313 4.62235 7.67733 5.15127 7.67733 5.72619V30.5225C7.67733 31.3331 8.31993 31.9942 9.11472 31.9942C9.90951 31.9942 10.5521 31.3388 10.5521 30.5225V5.72619C10.5521 2.92059 8.38193 0.632411 5.66499 0.494431H5.6819ZM31.8592 2.97233H29.4185C29.4185 1.33956 28.0713 0 26.4254 0C24.8865 0 23.6126 1.16709 23.4491 2.64463H23.4322V5.90442H31.8592C33.105 5.90442 34.1196 6.93927 34.1196 8.21559V8.50305C34.1196 9.77363 33.105 10.8142 31.8592 10.8142H24.8696C24.0748 10.8142 23.4322 11.4696 23.4322 12.2803C23.4322 13.0909 24.0748 13.7463 24.8696 13.7463H31.8592C34.6945 13.7463 37 11.3949 37 8.50305V8.21559C37 5.32375 34.6945 2.97233 31.8592 2.97233ZM19.4413 9.03198V12.4125C19.4413 13.2231 20.0839 13.8843 20.8787 13.8843C21.6735 13.8843 22.3161 13.2289 22.3161 12.4125V1.94898C22.3161 1.13834 21.6735 0.482932 20.8787 0.482932C20.0839 0.482932 19.4413 1.13834 19.4413 1.94898V6.09414H14.7008V1.94898C14.7008 1.13834 14.0582 0.482932 13.2634 0.482932C12.4686 0.482932 11.826 1.13834 11.826 1.94898V30.5225C11.826 31.3331 12.4686 31.9942 13.2634 31.9942C14.0582 31.9942 14.7008 31.3388 14.7008 30.5225V9.02623H19.4413V9.03198ZM26.865 19.9612C27.3442 19.9612 27.812 19.7197 28.0826 19.277L29.8469 16.4197C30.2697 15.7355 30.0724 14.8272 29.3959 14.396C28.7252 13.9648 27.8346 14.166 27.4118 14.8559L25.6475 17.7133C25.2247 18.3974 25.422 19.3058 26.0984 19.737C26.3352 19.8922 26.6001 19.9612 26.865 19.9612Z" fill="white"/>
</mask>
<g mask="url(#mask0_846_2833)">
<mask id="mask1_846_2833" style="mask-type:luminance" maskUnits="userSpaceOnUse" x="-12" y="-18" width="61" height="62">
<path d="M48.528 -17.6327H-11.4814V43.5732H48.528V-17.6327Z" fill="white"/>
</mask>
<g mask="url(#mask1_846_2833)">
<path d="M37.2935 -0.298981H-0.287109V32.2932H37.2935V-0.298981Z" fill="#111111"/>
</g>
</g>
<path d="M46.9669 25V7.72H49.8589V22.288H57.4909V25H46.9669ZM59.7278 29.656V27.004H62.6918V29.656H59.7278ZM59.7638 10.072V7.42H62.6558V10.072H59.7638ZM59.7638 25V12.04H62.6558V25H59.7638ZM71.8783 25.36C70.5423 25.36 69.4023 25.064 68.4583 24.472C67.5143 23.872 66.7903 23.056 66.2863 22.024C65.7903 20.992 65.5383 19.824 65.5303 18.52C65.5383 17.192 65.7983 16.016 66.3103 14.992C66.8303 13.96 67.5663 13.152 68.5183 12.568C69.4703 11.976 70.6023 11.68 71.9143 11.68C73.3863 11.68 74.6303 12.052 75.6463 12.796C76.6703 13.532 77.3383 14.54 77.6503 15.82L74.7703 16.6C74.5463 15.904 74.1743 15.364 73.6543 14.98C73.1343 14.588 72.5423 14.392 71.8783 14.392C71.1263 14.392 70.5063 14.572 70.0183 14.932C69.5303 15.284 69.1703 15.772 68.9383 16.396C68.7063 17.02 68.5903 17.728 68.5903 18.52C68.5903 19.752 68.8663 20.748 69.4183 21.508C69.9703 22.268 70.7903 22.648 71.8783 22.648C72.6463 22.648 73.2503 22.472 73.6903 22.12C74.1383 21.768 74.4743 21.26 74.6983 20.596L77.6503 21.256C77.2503 22.576 76.5503 23.592 75.5503 24.304C74.5503 25.008 73.3263 25.36 71.8783 25.36ZM89.019 25V18.76C89.019 18.352 88.991 17.9 88.935 17.404C88.879 16.908 88.747 16.432 88.539 15.976C88.339 15.512 88.035 15.132 87.627 14.836C87.227 14.54 86.683 14.392 85.995 14.392C85.627 14.392 85.263 14.452 84.903 14.572C84.543 14.692 84.215 14.9 83.919 15.196C83.631 15.484 83.399 15.884 83.223 16.396C83.047 16.9 82.959 17.548 82.959 18.34L81.243 17.608C81.243 16.504 81.455 15.504 81.879 14.608C82.311 13.712 82.943 13 83.775 12.472C84.607 11.936 85.631 11.668 86.847 11.668C87.807 11.668 88.599 11.828 89.223 12.148C89.847 12.468 90.343 12.876 90.711 13.372C91.079 13.868 91.351 14.396 91.527 14.956C91.703 15.516 91.815 16.048 91.863 16.552C91.919 17.048 91.947 17.452 91.947 17.764V25H89.019ZM80.031 25V7.72H82.611V16.816H82.959V25H80.031ZM99.8831 25V7.72H102.811L110.827 19.9V7.72H113.755V25H110.827L102.811 12.82V25H99.8831ZM126.074 25V18.76C126.074 18.352 126.046 17.9 125.99 17.404C125.934 16.908 125.802 16.432 125.594 15.976C125.394 15.512 125.09 15.132 124.682 14.836C124.282 14.54 123.738 14.392 123.05 14.392C122.682 14.392 122.318 14.452 121.958 14.572C121.598 14.692 121.27 14.9 120.974 15.196C120.686 15.484 120.454 15.884 120.278 16.396C120.102 16.9 120.014 17.548 120.014 18.34L118.298 17.608C118.298 16.504 118.51 15.504 118.934 14.608C119.366 13.712 119.998 13 120.83 12.472C121.662 11.936 122.686 11.668 123.902 11.668C124.862 11.668 125.654 11.828 126.278 12.148C126.902 12.468 127.398 12.876 127.766 13.372C128.134 13.868 128.406 14.396 128.582 14.956C128.758 15.516 128.87 16.048 128.918 16.552C128.974 17.048 129.002 17.452 129.002 17.764V25H126.074ZM117.086 25V7.72H119.666V16.816H120.014V25H117.086ZM143.905 9.892L146.089 9.88C146.209 10.752 146.165 11.464 145.957 12.016C145.749 12.56 145.393 12.976 144.889 13.264C144.409 13.544 143.865 13.688 143.257 13.696C142.657 13.704 142.105 13.68 141.601 13.624V12.04C141.777 12.04 141.945 12.04 142.105 12.04C142.265 12.032 142.425 12.012 142.585 11.98C143.193 11.876 143.565 11.62 143.701 11.212C143.845 10.796 143.913 10.356 143.905 9.892ZM136.993 25.372C136.033 25.372 135.241 25.212 134.617 24.892C133.993 24.572 133.497 24.164 133.129 23.668C132.761 23.172 132.489 22.644 132.313 22.084C132.137 21.524 132.021 20.996 131.965 20.5C131.917 19.996 131.893 19.588 131.893 19.276V12.04H134.821V18.28C134.821 18.68 134.849 19.132 134.905 19.636C134.961 20.132 135.089 20.612 135.289 21.076C135.497 21.532 135.801 21.908 136.201 22.204C136.609 22.5 137.157 22.648 137.845 22.648C138.213 22.648 138.577 22.588 138.937 22.468C139.297 22.348 139.621 22.144 139.909 21.856C140.205 21.56 140.441 21.156 140.617 20.644C140.793 20.132 140.881 19.484 140.881 18.7L142.597 19.432C142.597 20.536 142.381 21.536 141.949 22.432C141.525 23.328 140.897 24.044 140.065 24.58C139.233 25.108 138.209 25.372 136.993 25.372ZM141.229 25V20.98H140.881V12.04H143.785V25H141.229ZM158.645 5.86H156.449L158.309 1.42H160.505L158.645 5.86ZM156.161 25V17.92L150.281 7.72H153.653L157.625 14.608L161.585 7.72H164.957L159.089 17.92V25H156.161Z" fill="#111111"/>
</svg>
