<svg width="17" height="16" viewBox="0 0 17 16" fill="none" xmlns="http://www.w3.org/2000/svg">
<path d="M5.82554 12.998L10.6975 8.00002L5.82554 3.00202C5.73831 2.91272 5.68948 2.79284 5.68948 2.66802C5.68948 2.54319 5.73831 2.42331 5.82554 2.33402C5.86791 2.29078 5.91847 2.25643 5.97428 2.23298C6.03008 2.20953 6.09001 2.19745 6.15054 2.19745C6.21107 2.19745 6.271 2.20953 6.32681 2.23298C6.38261 2.25643 6.43318 2.29078 6.47554 2.33402L11.6595 7.65102C11.7506 7.74439 11.8015 7.86962 11.8015 8.00002C11.8015 8.13041 11.7506 8.25564 11.6595 8.34902L6.47654 13.666C6.43415 13.7096 6.38346 13.7442 6.32746 13.7678C6.27147 13.7914 6.21132 13.8036 6.15054 13.8036C6.08977 13.8036 6.02961 13.7914 5.97362 13.7678C5.91763 13.7442 5.86694 13.7096 5.82454 13.666C5.73731 13.5767 5.68848 13.4568 5.68848 13.332C5.68848 13.2072 5.73731 13.0873 5.82454 12.998H5.82554Z" fill="#111111"/>
</svg>
