<svg width="17" height="16" viewBox="0 0 17 16" fill="none" xmlns="http://www.w3.org/2000/svg">
<path d="M11.1745 3.00198L6.30246 7.99998L11.1745 12.998C11.2617 13.0873 11.3105 13.2072 11.3105 13.332C11.3105 13.4568 11.2617 13.5767 11.1745 13.666C11.1321 13.7092 11.0815 13.7436 11.0257 13.767C10.9699 13.7905 10.91 13.8026 10.8495 13.8026C10.7889 13.8026 10.729 13.7905 10.6732 13.767C10.6174 13.7436 10.5668 13.7092 10.5245 13.666L5.34046 8.34898C5.24944 8.25561 5.19851 8.13038 5.19851 7.99998C5.19851 7.86959 5.24944 7.74436 5.34046 7.65098L10.5235 2.33398C10.5659 2.29044 10.6165 2.25583 10.6725 2.2322C10.7285 2.20857 10.7887 2.19639 10.8495 2.19639C10.9102 2.19639 10.9704 2.20857 11.0264 2.2322C11.0824 2.25583 11.1331 2.29044 11.1755 2.33398C11.2627 2.42328 11.3115 2.54316 11.3115 2.66798C11.3115 2.79281 11.2627 2.91269 11.1755 3.00198H11.1745Z" fill="#111111"/>
</svg>
