<svg width="17" height="16" viewBox="0 0 17 16" fill="none" xmlns="http://www.w3.org/2000/svg">
<path d="M11.1745 3.00192L6.30246 7.99992L11.1745 12.9979C11.2617 13.0872 11.3105 13.2071 11.3105 13.3319C11.3105 13.4568 11.2617 13.5766 11.1745 13.6659C11.1321 13.7092 11.0815 13.7435 11.0257 13.767C10.9699 13.7904 10.91 13.8025 10.8495 13.8025C10.7889 13.8025 10.729 13.7904 10.6732 13.767C10.6174 13.7435 10.5668 13.7092 10.5245 13.6659L5.34046 8.34892C5.24944 8.25555 5.19851 8.13032 5.19851 7.99992C5.19851 7.86953 5.24944 7.7443 5.34046 7.65092L10.5235 2.33392C10.5659 2.29038 10.6165 2.25577 10.6725 2.23214C10.7285 2.20851 10.7887 2.19633 10.8495 2.19633C10.9102 2.19633 10.9704 2.20851 11.0264 2.23214C11.0824 2.25577 11.1331 2.29038 11.1755 2.33392C11.2627 2.42322 11.3115 2.54309 11.3115 2.66792C11.3115 2.79275 11.2627 2.91263 11.1755 3.00192H11.1745Z" fill="#111111"/>
</svg>
