<svg width="12" height="12" viewBox="0 0 12 12" fill="none" xmlns="http://www.w3.org/2000/svg">
<path d="M5.99961 8.5C5.87196 8.49936 5.74606 8.47031 5.63104 8.41496C5.51602 8.35961 5.41476 8.27935 5.33461 8.18L3.22961 5.63C3.1066 5.47648 3.0292 5.2915 3.00622 5.09613C2.98323 4.90077 3.01559 4.70287 3.09961 4.525C3.16775 4.37041 3.27894 4.23871 3.41992 4.14561C3.56089 4.05252 3.72568 4.00197 3.89461 4H8.10461C8.27353 4.00197 8.43833 4.05252 8.5793 4.14561C8.72027 4.23871 8.83147 4.37041 8.89961 4.525C8.98362 4.70287 9.01598 4.90077 8.993 5.09613C8.97002 5.2915 8.89261 5.47648 8.76961 5.63L6.66461 8.18C6.58446 8.27935 6.4832 8.35961 6.36818 8.41496C6.25315 8.47031 6.12725 8.49936 5.99961 8.5Z" fill="#6E7074"/>
</svg>
